<svg width="180" height="56" fill="none" xmlns="http://www.w3.org/2000/svg"><path fill-rule="evenodd" clip-rule="evenodd" d="M34.63 16.242 24.064 11.3a4.954 4.954 0 0 0-4.188 0L9.313 16.242a4.716 4.716 0 0 0-2.611 3.18l-2.61 11.106a4.586 4.586 0 0 0 .933 3.966l7.31 8.906a4.88 4.88 0 0 0 3.773 1.764h11.726a4.88 4.88 0 0 0 3.773-1.764l7.31-8.906a4.586 4.586 0 0 0 .932-3.966L37.24 19.423a4.716 4.716 0 0 0-2.61-3.18Zm-8.852-8.398a9.007 9.007 0 0 0-7.614 0L7.6 12.786c-2.406 1.126-4.153 3.254-4.747 5.783L.243 29.674a8.339 8.339 0 0 0 1.695 7.211l7.31 8.906c1.665 2.028 4.19 3.209 6.86 3.209h11.726c2.67 0 5.195-1.181 6.86-3.21l7.31-8.905a8.338 8.338 0 0 0 1.695-7.21l-2.61-11.106c-.594-2.529-2.34-4.657-4.746-5.783L25.778 7.844Z" fill="#332974"/><path d="m61.82 45-.02-9.28-4.6 7.68h-1.16l-4.6-7.56V45h-2.46V31h2.14l5.54 9.26L62.14 31h2.12l.04 14h-2.48Zm16.558-11.8h-4.64V45h-2.58V33.2h-4.62V31h11.84v2.2ZM92.035 31l-6.08 11.3c-.534 1-1.174 1.753-1.92 2.26a4.213 4.213 0 0 1-2.4.74 5.16 5.16 0 0 1-2.06-.44l.64-2.04c.546.173 1 .26 1.36.26.84 0 1.533-.433 2.08-1.3l.22-.34L78.295 31h2.78l4.14 8.22 4.26-8.22h2.56Zm8.092 14.2c-1.414 0-2.694-.307-3.84-.92a7.02 7.02 0 0 1-2.68-2.58c-.64-1.093-.96-2.327-.96-3.7 0-1.373.326-2.607.98-3.7a6.873 6.873 0 0 1 2.68-2.56c1.146-.627 2.426-.94 3.84-.94 1.146 0 2.193.2 3.14.6.946.4 1.746.98 2.4 1.74l-1.68 1.58c-1.014-1.093-2.26-1.64-3.74-1.64-.96 0-1.82.213-2.58.64a4.469 4.469 0 0 0-1.78 1.74c-.427.747-.64 1.593-.64 2.54 0 .947.213 1.793.64 2.54a4.608 4.608 0 0 0 1.78 1.76c.76.413 1.62.62 2.58.62 1.48 0 2.726-.553 3.74-1.66l1.68 1.6a6.376 6.376 0 0 1-2.42 1.74c-.947.4-1.994.6-3.14.6Zm7.994-14.2h2.56v9.94l7.52-9.94h2.42v14h-2.56v-9.92l-7.52 9.92h-2.42V31ZM56.616 13.6V22H55.08v-7.08h-4.356V22h-1.536v-8.4h7.428Zm5.753 1.92c.624 0 1.18.136 1.668.408.496.272.884.656 1.164 1.152.28.496.42 1.068.42 1.716 0 .648-.14 1.224-.42 1.728-.28.496-.668.88-1.164 1.152-.488.272-1.044.408-1.668.408-.864 0-1.548-.288-2.052-.864v3.108h-1.5v-8.736h1.428v.84a2.33 2.33 0 0 1 .912-.684 3.145 3.145 0 0 1 1.212-.228ZM62.2 20.8c.552 0 1.004-.184 1.356-.552.36-.368.54-.852.54-1.452s-.18-1.084-.54-1.452c-.352-.368-.804-.552-1.356-.552-.36 0-.684.084-.972.252-.288.16-.516.392-.684.696a2.148 2.148 0 0 0-.252 1.056c0 .4.084.752.252 1.056.168.304.396.54.684.708.288.16.612.24.972.24Zm4.913-5.208h1.5v4.224l3.54-4.224h1.368V22h-1.5v-4.224L68.493 22h-1.38v-6.408Zm14.425 3.24c0 .104-.008.252-.024.444h-5.028c.088.472.316.848.684 1.128.376.272.84.408 1.392.408.704 0 1.284-.232 1.74-.696l.804.924a2.709 2.709 0 0 1-1.092.78c-.44.176-.936.264-1.488.264-.704 0-1.324-.14-1.86-.42A3.078 3.078 0 0 1 75.42 20.5a3.373 3.373 0 0 1-.432-1.704c0-.624.14-1.184.42-1.68a3.052 3.052 0 0 1 1.188-1.176 3.449 3.449 0 0 1 1.704-.42c.624 0 1.18.14 1.668.42.496.272.88.66 1.152 1.164.28.496.42 1.072.42 1.728ZM78.3 16.72c-.48 0-.888.144-1.224.432-.328.28-.528.656-.6 1.128h3.636a1.768 1.768 0 0 0-.588-1.128c-.328-.288-.736-.432-1.224-.432ZM89.48 22v-4.248l-2.16 3.576h-.647l-2.124-3.588V22H83.18v-6.408h1.572l2.28 4.008 2.388-4.008h1.404L90.836 22H89.48Zm3.369-6.408h1.5v2.604h3.228v-2.604h1.5V22h-1.5v-2.532h-3.228V22h-1.5v-6.408Zm10.626-.072c.944 0 1.664.228 2.16.684.504.448.756 1.128.756 2.04V22h-1.416v-.78c-.184.28-.448.496-.792.648-.336.144-.744.216-1.224.216s-.9-.08-1.26-.24a2.05 2.05 0 0 1-.84-.684 1.79 1.79 0 0 1-.288-.996c0-.576.212-1.036.636-1.38.432-.352 1.108-.528 2.028-.528h1.656v-.096c0-.448-.136-.792-.408-1.032-.264-.24-.66-.36-1.188-.36-.36 0-.716.056-1.068.168a2.617 2.617 0 0 0-.876.468l-.588-1.092c.336-.256.74-.452 1.212-.588a5.393 5.393 0 0 1 1.5-.204Zm-.204 5.472c.376 0 .708-.084.996-.252.296-.176.504-.424.624-.744v-.744h-1.548c-.864 0-1.296.284-1.296.852 0 .272.108.488.324.648.216.16.516.24.9.24Zm10.388-5.4V22h-1.344v-1.932h-1.692L109.314 22h-1.608l1.512-2.136c-.464-.16-.82-.404-1.068-.732-.24-.336-.36-.748-.36-1.236 0-.736.26-1.304.78-1.704.52-.4 1.236-.6 2.148-.6h2.94Zm-2.892 1.26c-.968 0-1.452.364-1.452 1.092 0 .72.468 1.08 1.404 1.08h1.596v-2.172h-1.548Zm10.89 2.58h-1.164V22h-1.5v-6.408h1.5v2.592h1.2l1.896-2.592h1.608l-2.328 3.084L125.352 22h-1.764l-1.932-2.568Zm7.399 2.652c-.648 0-1.232-.14-1.752-.42a3.117 3.117 0 0 1-1.224-1.164 3.373 3.373 0 0 1-.432-1.704c0-.632.144-1.196.432-1.692a3.117 3.117 0 0 1 1.224-1.164c.52-.28 1.104-.42 1.752-.42.656 0 1.244.14 1.764.42.52.28.924.668 1.212 1.164.296.496.444 1.06.444 1.692 0 .632-.148 1.2-.444 1.704a3.033 3.033 0 0 1-1.212 1.164c-.52.28-1.108.42-1.764.42Zm0-1.284c.552 0 1.008-.184 1.368-.552.36-.368.54-.852.54-1.452s-.18-1.084-.54-1.452c-.36-.368-.816-.552-1.368-.552-.552 0-1.008.184-1.368.552-.352.368-.528.852-.528 1.452s.176 1.084.528 1.452c.36.368.816.552 1.368.552Zm11.202 1.2v-4.248l-2.16 3.576h-.648l-2.124-3.588V22h-1.368v-6.408h1.572l2.28 4.008 2.388-4.008h1.404l.012 6.408h-1.356Zm3.368-6.408h1.5v4.224l3.54-4.224h1.368V22h-1.5v-4.224L145.005 22h-1.38v-6.408Zm11.342 6.492c-.664 0-1.26-.14-1.788-.42a3.097 3.097 0 0 1-1.236-1.164 3.301 3.301 0 0 1-.444-1.704c0-.632.148-1.196.444-1.692a3.117 3.117 0 0 1 1.224-1.164c.528-.28 1.128-.42 1.8-.42.632 0 1.184.128 1.656.384.48.256.84.624 1.08 1.104l-1.152.672a1.77 1.77 0 0 0-.696-.66 1.813 1.813 0 0 0-.9-.228c-.56 0-1.024.184-1.392.552-.368.36-.552.844-.552 1.452s.18 1.096.54 1.464c.368.36.836.54 1.404.54.328 0 .628-.072.9-.216.28-.152.512-.376.696-.672l1.152.672c-.248.48-.612.852-1.092 1.116-.472.256-1.02.384-1.644.384Zm6.879 0c-.664 0-1.26-.14-1.788-.42a3.097 3.097 0 0 1-1.236-1.164 3.301 3.301 0 0 1-.444-1.704c0-.632.148-1.196.444-1.692a3.117 3.117 0 0 1 1.224-1.164c.528-.28 1.128-.42 1.8-.42.632 0 1.184.128 1.656.384.48.256.84.624 1.08 1.104l-1.152.672a1.77 1.77 0 0 0-.696-.66 1.813 1.813 0 0 0-.9-.228c-.56 0-1.024.184-1.392.552-.368.36-.552.844-.552 1.452s.18 1.096.54 1.464c.368.36.836.54 1.404.54.328 0 .628-.072.9-.216.28-.152.512-.376.696-.672l1.152.672c-.248.48-.612.852-1.092 1.116-.472.256-1.02.384-1.644.384Zm4.057-6.492h1.5v4.224l3.54-4.224h1.368V22h-1.5v-4.224L167.283 22h-1.38v-6.408Zm13.837 0V22h-1.344v-1.932h-1.692L175.396 22h-1.608l1.512-2.136c-.464-.16-.82-.404-1.068-.732-.24-.336-.36-.748-.36-1.236 0-.736.26-1.304.78-1.704.52-.4 1.236-.6 2.148-.6h2.94Zm-2.892 1.26c-.968 0-1.452.364-1.452 1.092 0 .72.468 1.08 1.404 1.08h1.596v-2.172h-1.548Z" fill="#332974"/></svg>